<svg width="41" height="41" viewBox="0 0 41 41" fill="none" xmlns="http://www.w3.org/2000/svg">
<path d="M17.1667 8.68087L20.5 5.34753M13.8333 27.0142L27.1667 13.6809M20.5 35.3475L23.8333 32.0142M28 32.0142C29.1051 32.0142 30.1649 31.5752 30.9463 30.7938C31.7277 30.0124 32.1667 28.9526 32.1667 27.8475C32.1667 26.7425 31.7277 25.6827 30.9463 24.9013C30.1649 24.1199 29.1051 23.6809 28 23.6809C26.8949 23.6809 25.8351 24.1199 25.0537 24.9013C24.2723 25.6827 23.8333 26.7425 23.8333 27.8475C23.8333 28.9526 24.2723 30.0124 25.0537 30.7938C25.8351 31.5752 26.8949 32.0142 28 32.0142ZM13 17.0142C14.1051 17.0142 15.1649 16.5752 15.9463 15.7938C16.7277 15.0124 17.1667 13.9526 17.1667 12.8475C17.1667 11.7425 16.7277 10.6827 15.9463 9.90126C15.1649 9.11985 14.1051 8.68087 13 8.68087C11.8949 8.68087 10.8351 9.11985 10.0537 9.90126C9.27232 10.6827 8.83333 11.7425 8.83333 12.8475C8.83333 13.9526 9.27232 15.0124 10.0537 15.7938C10.8351 16.5752 11.8949 17.0142 13 17.0142ZM9.66667 35.3475C10.7717 35.3475 11.8315 34.9085 12.6129 34.1271C13.3943 33.3457 13.8333 32.2859 13.8333 31.1809C13.8333 30.0758 13.3943 29.016 12.6129 28.2346C11.8315 27.4532 10.7717 27.0142 9.66667 27.0142C8.5616 27.0142 7.50179 27.4532 6.72039 28.2346C5.93899 29.016 5.5 30.0758 5.5 31.1809C5.5 32.2859 5.93899 33.3457 6.72039 34.1271C7.50179 34.9085 8.5616 35.3475 9.66667 35.3475ZM31.3333 13.6809C32.4384 13.6809 33.4982 13.2419 34.2796 12.4605C35.061 11.6791 35.5 10.6193 35.5 9.5142C35.5 8.40913 35.061 7.34932 34.2796 6.56792C33.4982 5.78652 32.4384 5.34753 31.3333 5.34753C30.2283 5.34753 29.1685 5.78652 28.3871 6.56792C27.6057 7.34932 27.1667 8.40913 27.1667 9.5142C27.1667 10.6193 27.6057 11.6791 28.3871 12.4605C29.1685 13.2419 30.2283 13.6809 31.3333 13.6809Z" stroke="black" style="stroke:black;stroke-opacity:1;" stroke-width="2" stroke-linecap="round" stroke-linejoin="round"/>
</svg>
